<svg xmlns="http://www.w3.org/2000/svg" width="189" height="185" fill="none" viewBox="0 0 189 185">
  <path fill="#fff" fill-rule="evenodd" d="M162.046 32.504 102.321 3.783a18.049 18.049 0 0 0-15.642 0l-59.726 28.72a18 18 0 0 0-9.75 12.21L2.452 109.247a17.972 17.972 0 0 0 3.48 15.222l41.33 51.754A18.036 18.036 0 0 0 61.356 183h66.29a18.035 18.035 0 0 0 14.092-6.776l41.332-51.754a17.973 17.973 0 0 0 3.479-15.222l-14.751-64.536a17.998 17.998 0 0 0-9.751-12.208ZM103.188 1.98a20.05 20.05 0 0 0-17.376 0L26.087 30.701a20 20 0 0 0-10.834 13.566L.503 108.802a19.973 19.973 0 0 0 3.866 16.916l41.33 51.754A20.035 20.035 0 0 0 61.356 185h66.29a20.034 20.034 0 0 0 15.655-7.528l41.331-51.754a19.97 19.97 0 0 0 3.867-16.916l-14.751-64.535A20.001 20.001 0 0 0 162.913 30.7L103.188 1.98Z" clip-rule="evenodd"/>
</svg>
